<mxfile host="app.diagrams.net" modified="2024-02-20T10:45:52.214Z" agent="Mozilla/5.0 (X11; Linux x86_64; rv:102.0) Gecko/20100101 Firefox/102.0" etag="3g3rZ02Cg_UFKHu8Eww1" version="23.1.5" type="device">
  <diagram name="Page-1" id="zW7ckY_YRRwpK-wGparV">
    <mxGraphModel dx="989" dy="567" grid="0" gridSize="10" guides="1" tooltips="1" connect="1" arrows="1" fold="1" page="1" pageScale="1" pageWidth="827" pageHeight="1169" math="0" shadow="0">
      <root>
        <mxCell id="0" />
        <mxCell id="1" parent="0" />
        <mxCell id="67D5oJWC6UBzKoaWn5l7-7" value="" style="group" vertex="1" connectable="0" parent="1">
          <mxGeometry x="180" y="120" width="200" height="100" as="geometry" />
        </mxCell>
        <mxCell id="67D5oJWC6UBzKoaWn5l7-3" value="" style="rounded=0;whiteSpace=wrap;html=1;strokeWidth=2;perimeterSpacing=0;glass=0;strokeColor=none;fillColor=#265DA6;" vertex="1" parent="67D5oJWC6UBzKoaWn5l7-7">
          <mxGeometry width="200" height="100" as="geometry" />
        </mxCell>
        <mxCell id="67D5oJWC6UBzKoaWn5l7-4" value="image: evolveum/midpoint" style="text;html=1;strokeColor=none;fillColor=none;align=left;verticalAlign=middle;whiteSpace=wrap;rounded=0;glass=0;fontFamily=Roboto;fontSource=https%3A%2F%2Ffonts.googleapis.com%2Fcss%3Ffamily%3DRoboto;fontSize=9;fontColor=#FFFFFF;fontStyle=2" vertex="1" parent="67D5oJWC6UBzKoaWn5l7-7">
          <mxGeometry x="10.526315789473683" y="50" width="178.94736842105263" height="25" as="geometry" />
        </mxCell>
        <mxCell id="67D5oJWC6UBzKoaWn5l7-5" value="midpoint_server" style="text;html=1;strokeColor=none;fillColor=none;align=center;verticalAlign=middle;whiteSpace=wrap;rounded=0;glass=0;fontFamily=Roboto;fontSource=https%3A%2F%2Ffonts.googleapis.com%2Fcss2%3Ffamily%3DRoboto%3Aital%2Cwght%401%2C300%26display%3Dswapp;fontSize=11;fontColor=#FFFFFF;fontStyle=1" vertex="1" parent="67D5oJWC6UBzKoaWn5l7-7">
          <mxGeometry x="10.526315789473683" y="11.25" width="178.94736842105263" height="25" as="geometry" />
        </mxCell>
        <mxCell id="67D5oJWC6UBzKoaWn5l7-8" value="" style="group" vertex="1" connectable="0" parent="1">
          <mxGeometry x="180" y="400" width="200" height="100" as="geometry" />
        </mxCell>
        <mxCell id="67D5oJWC6UBzKoaWn5l7-9" value="" style="rounded=0;whiteSpace=wrap;html=1;strokeWidth=2;perimeterSpacing=0;glass=0;strokeColor=none;fillColor=#265DA6;" vertex="1" parent="67D5oJWC6UBzKoaWn5l7-8">
          <mxGeometry width="200" height="100" as="geometry" />
        </mxCell>
        <mxCell id="67D5oJWC6UBzKoaWn5l7-10" value="image: postgres" style="text;html=1;strokeColor=none;fillColor=none;align=left;verticalAlign=middle;whiteSpace=wrap;rounded=0;glass=0;fontFamily=Roboto;fontSource=https%3A%2F%2Ffonts.googleapis.com%2Fcss%3Ffamily%3DRoboto;fontSize=9;fontColor=#FFFFFF;fontStyle=2" vertex="1" parent="67D5oJWC6UBzKoaWn5l7-8">
          <mxGeometry x="10.526315789473683" y="50" width="178.94736842105263" height="25" as="geometry" />
        </mxCell>
        <mxCell id="67D5oJWC6UBzKoaWn5l7-11" value="midpoint_data" style="text;html=1;strokeColor=none;fillColor=none;align=center;verticalAlign=middle;whiteSpace=wrap;rounded=0;glass=0;fontFamily=Roboto;fontSource=https%3A%2F%2Ffonts.googleapis.com%2Fcss2%3Ffamily%3DRoboto%3Aital%2Cwght%401%2C300%26display%3Dswapp;fontSize=11;fontColor=#FFFFFF;fontStyle=1" vertex="1" parent="67D5oJWC6UBzKoaWn5l7-8">
          <mxGeometry x="10.526315789473683" y="11.25" width="178.94736842105263" height="25" as="geometry" />
        </mxCell>
        <mxCell id="67D5oJWC6UBzKoaWn5l7-12" value="" style="group;" vertex="1" connectable="0" parent="1">
          <mxGeometry x="300" y="260" width="200" height="100" as="geometry" />
        </mxCell>
        <mxCell id="67D5oJWC6UBzKoaWn5l7-13" value="" style="rounded=0;whiteSpace=wrap;html=1;strokeWidth=2;perimeterSpacing=0;glass=0;strokeColor=none;fillColor=#37B34A;opacity=70;" vertex="1" parent="67D5oJWC6UBzKoaWn5l7-12">
          <mxGeometry width="200" height="100" as="geometry" />
        </mxCell>
        <mxCell id="67D5oJWC6UBzKoaWn5l7-14" value="&lt;div&gt;image: evolveum/midpoint&lt;/div&gt;" style="text;html=1;strokeColor=none;fillColor=none;align=left;verticalAlign=middle;whiteSpace=wrap;rounded=0;glass=0;fontFamily=Roboto;fontSource=https%3A%2F%2Ffonts.googleapis.com%2Fcss%3Ffamily%3DRoboto;fontSize=9;fontColor=#FFFFFF;fontStyle=2" vertex="1" parent="67D5oJWC6UBzKoaWn5l7-12">
          <mxGeometry x="10.526315789473683" y="50" width="178.94736842105263" height="25" as="geometry" />
        </mxCell>
        <mxCell id="67D5oJWC6UBzKoaWn5l7-15" value="data_init" style="text;html=1;strokeColor=none;fillColor=none;align=center;verticalAlign=middle;whiteSpace=wrap;rounded=0;glass=0;fontFamily=Roboto;fontSource=https%3A%2F%2Ffonts.googleapis.com%2Fcss2%3Ffamily%3DRoboto%3Aital%2Cwght%401%2C300%26display%3Dswapp;fontSize=11;fontColor=#FFFFFF;fontStyle=1" vertex="1" parent="67D5oJWC6UBzKoaWn5l7-12">
          <mxGeometry x="10.526315789473683" y="11.25" width="178.94736842105263" height="25" as="geometry" />
        </mxCell>
        <mxCell id="67D5oJWC6UBzKoaWn5l7-17" value="" style="group" vertex="1" connectable="0" parent="1">
          <mxGeometry x="510" y="410" width="60" height="80" as="geometry" />
        </mxCell>
        <mxCell id="67D5oJWC6UBzKoaWn5l7-2" value="" style="shape=cylinder3;whiteSpace=wrap;html=1;boundedLbl=1;backgroundOutline=1;size=15.068965517241566;rounded=0;glass=0;fontFamily=Roboto;fontSource=https%3A%2F%2Ffonts.googleapis.com%2Fcss2%3Ffamily%3DRoboto%3Aital%2Cwght%401%2C300%26display%3Dswapp;fontSize=11;fontColor=#1E3F78;strokeColor=#1E3F78;strokeWidth=3;fillColor=#E6E6E6;align=left;sketch=0;shadow=0;" vertex="1" parent="67D5oJWC6UBzKoaWn5l7-17">
          <mxGeometry x="8.000000000000002" width="44.00000000000001" height="56" as="geometry" />
        </mxCell>
        <mxCell id="67D5oJWC6UBzKoaWn5l7-16" value="midpoint_data" style="whiteSpace=wrap;html=1;fontFamily=Roboto;fontSource=https%3A%2F%2Ffonts.googleapis.com%2Fcss%3Ffamily%3DRoboto;strokeColor=none;fillColor=none;" vertex="1" parent="67D5oJWC6UBzKoaWn5l7-17">
          <mxGeometry y="56" width="60" height="24" as="geometry" />
        </mxCell>
        <mxCell id="67D5oJWC6UBzKoaWn5l7-18" value="" style="group" vertex="1" connectable="0" parent="1">
          <mxGeometry x="510" y="140" width="60" height="80" as="geometry" />
        </mxCell>
        <mxCell id="67D5oJWC6UBzKoaWn5l7-19" value="" style="shape=cylinder3;whiteSpace=wrap;html=1;boundedLbl=1;backgroundOutline=1;size=15.068965517241566;rounded=0;glass=0;fontFamily=Roboto;fontSource=https%3A%2F%2Ffonts.googleapis.com%2Fcss2%3Ffamily%3DRoboto%3Aital%2Cwght%401%2C300%26display%3Dswapp;fontSize=11;fontColor=#1E3F78;strokeColor=#1E3F78;strokeWidth=3;fillColor=#E6E6E6;align=left;sketch=0;shadow=0;" vertex="1" parent="67D5oJWC6UBzKoaWn5l7-18">
          <mxGeometry x="8" width="44" height="56" as="geometry" />
        </mxCell>
        <mxCell id="67D5oJWC6UBzKoaWn5l7-20" value="midpoint_home" style="whiteSpace=wrap;html=1;fontFamily=Roboto;fontSource=https%3A%2F%2Ffonts.googleapis.com%2Fcss%3Ffamily%3DRoboto;strokeColor=none;fillColor=none;" vertex="1" parent="67D5oJWC6UBzKoaWn5l7-18">
          <mxGeometry y="56" width="60" height="24" as="geometry" />
        </mxCell>
        <mxCell id="67D5oJWC6UBzKoaWn5l7-29" value="" style="endArrow=block;html=1;strokeWidth=3;strokeColor=#1E3F78;endFill=1;rounded=0;exitX=0.25;exitY=1;exitDx=0;exitDy=0;entryX=0.852;entryY=-0.001;entryDx=0;entryDy=0;entryPerimeter=0;" edge="1" parent="1" source="67D5oJWC6UBzKoaWn5l7-13" target="67D5oJWC6UBzKoaWn5l7-9">
          <mxGeometry width="50" height="50" relative="1" as="geometry">
            <mxPoint x="400" y="360" as="sourcePoint" />
            <mxPoint x="450" y="310" as="targetPoint" />
          </mxGeometry>
        </mxCell>
        <mxCell id="67D5oJWC6UBzKoaWn5l7-31" value="" style="edgeStyle=elbowEdgeStyle;elbow=vertical;endArrow=block;html=1;fontFamily=Roboto;fontSource=https%3A%2F%2Ffonts.googleapis.com%2Fcss2%3Ffamily%3DRoboto%3Aital%2Cwght%401%2C300%26display%3Dswapp;fontSize=9;fontColor=#FFFFFF;strokeColor=#1E3F78;strokeWidth=3;dashed=1;dashPattern=1 1;endFill=1;rounded=0;exitX=0.834;exitY=-0.001;exitDx=0;exitDy=0;exitPerimeter=0;entryX=0.5;entryY=1;entryDx=0;entryDy=0;" edge="1" parent="1" source="67D5oJWC6UBzKoaWn5l7-13" target="67D5oJWC6UBzKoaWn5l7-20">
          <mxGeometry width="50" height="50" relative="1" as="geometry">
            <mxPoint x="560" y="310" as="sourcePoint" />
            <mxPoint x="610" y="260" as="targetPoint" />
          </mxGeometry>
        </mxCell>
        <mxCell id="67D5oJWC6UBzKoaWn5l7-33" value="" style="endArrow=block;html=1;strokeWidth=3;strokeColor=#1E3F78;endFill=1;dashed=1;dashPattern=1 1;rounded=0;exitX=1;exitY=0.5;exitDx=0;exitDy=0;entryX=0;entryY=1;entryDx=0;entryDy=-15.068965517241566;entryPerimeter=0;" edge="1" parent="1" source="67D5oJWC6UBzKoaWn5l7-9" target="67D5oJWC6UBzKoaWn5l7-2">
          <mxGeometry width="50" height="50" relative="1" as="geometry">
            <mxPoint x="400" y="360" as="sourcePoint" />
            <mxPoint x="450" y="310" as="targetPoint" />
          </mxGeometry>
        </mxCell>
        <mxCell id="67D5oJWC6UBzKoaWn5l7-34" value="" style="endArrow=block;html=1;strokeWidth=3;strokeColor=#1E3F78;endFill=1;dashed=1;dashPattern=1 1;rounded=0;exitX=1;exitY=0.5;exitDx=0;exitDy=0;entryX=0;entryY=0.5;entryDx=0;entryDy=0;entryPerimeter=0;" edge="1" parent="1" source="67D5oJWC6UBzKoaWn5l7-3" target="67D5oJWC6UBzKoaWn5l7-19">
          <mxGeometry width="50" height="50" relative="1" as="geometry">
            <mxPoint x="460" y="130" as="sourcePoint" />
            <mxPoint x="510" y="80" as="targetPoint" />
          </mxGeometry>
        </mxCell>
        <mxCell id="67D5oJWC6UBzKoaWn5l7-35" value="" style="endArrow=block;html=1;strokeWidth=3;strokeColor=#1E3F78;endFill=1;rounded=0;exitX=0.25;exitY=1;exitDx=0;exitDy=0;entryX=0.25;entryY=0;entryDx=0;entryDy=0;entryPerimeter=0;" edge="1" parent="1" source="67D5oJWC6UBzKoaWn5l7-3" target="67D5oJWC6UBzKoaWn5l7-9">
          <mxGeometry width="50" height="50" relative="1" as="geometry">
            <mxPoint x="100" y="335" as="sourcePoint" />
            <mxPoint x="150" y="285" as="targetPoint" />
          </mxGeometry>
        </mxCell>
        <mxCell id="67D5oJWC6UBzKoaWn5l7-39" value="" style="shape=actor;whiteSpace=wrap;html=1;" vertex="1" parent="1">
          <mxGeometry x="40" y="140" width="40" height="60" as="geometry" />
        </mxCell>
        <mxCell id="67D5oJWC6UBzKoaWn5l7-41" value="" style="endArrow=block;html=1;strokeWidth=3;strokeColor=#1E3F78;endFill=1;rounded=0;exitX=0.9;exitY=0.5;exitDx=0;exitDy=0;exitPerimeter=0;entryX=0;entryY=0.5;entryDx=0;entryDy=0;" edge="1" parent="1" source="67D5oJWC6UBzKoaWn5l7-39" target="67D5oJWC6UBzKoaWn5l7-3">
          <mxGeometry width="50" height="50" relative="1" as="geometry">
            <mxPoint x="50" y="300" as="sourcePoint" />
            <mxPoint x="100" y="250" as="targetPoint" />
          </mxGeometry>
        </mxCell>
        <mxCell id="67D5oJWC6UBzKoaWn5l7-42" value="" style="endArrow=block;html=1;strokeWidth=3;strokeColor=#1E3F78;endFill=1;dashed=1;dashPattern=1 1;rounded=0;" edge="1" parent="1">
          <mxGeometry width="50" height="50" relative="1" as="geometry">
            <mxPoint x="40" y="279" as="sourcePoint" />
            <mxPoint x="90" y="279" as="targetPoint" />
          </mxGeometry>
        </mxCell>
        <mxCell id="67D5oJWC6UBzKoaWn5l7-43" value="&lt;div&gt;Storage data&lt;br&gt;&lt;/div&gt;" style="text;html=1;align=center;verticalAlign=middle;resizable=0;points=[];autosize=1;strokeColor=none;fillColor=none;fontFamily=Roboto;fontSource=https%3A%2F%2Ffonts.googleapis.com%2Fcss%3Ffamily%3DRoboto;" vertex="1" parent="1">
          <mxGeometry x="15" y="279" width="90" height="30" as="geometry" />
        </mxCell>
        <mxCell id="67D5oJWC6UBzKoaWn5l7-45" value="" style="endArrow=block;html=1;strokeWidth=3;strokeColor=#1E3F78;endFill=1;rounded=0;" edge="1" parent="1">
          <mxGeometry width="50" height="50" relative="1" as="geometry">
            <mxPoint x="39" y="323" as="sourcePoint" />
            <mxPoint x="89" y="323" as="targetPoint" />
          </mxGeometry>
        </mxCell>
        <mxCell id="67D5oJWC6UBzKoaWn5l7-47" value="&lt;div&gt;Network data&lt;br&gt;&lt;/div&gt;" style="text;html=1;align=center;verticalAlign=middle;resizable=0;points=[];autosize=1;strokeColor=none;fillColor=none;fontFamily=Roboto;fontSource=https%3A%2F%2Ffonts.googleapis.com%2Fcss%3Ffamily%3DRoboto;" vertex="1" parent="1">
          <mxGeometry x="14" y="327" width="90" height="26" as="geometry" />
        </mxCell>
      </root>
    </mxGraphModel>
  </diagram>
</mxfile>
